<mxfile host="app.diagrams.net" modified="2021-09-25T08:44:02.270Z" agent="5.0 (Windows NT 10.0; Win64; x64) AppleWebKit/537.36 (KHTML, like Gecko) Chrome/94.0.4606.54 Safari/537.36" etag="2UgBeTC6imSJ7M0Xr7ex" version="15.3.1" type="github">
  <diagram id="OLlDFcjV29Axa0X5U9kV" name="Page-1">
    <mxGraphModel dx="2377" dy="-334" grid="1" gridSize="10" guides="1" tooltips="1" connect="1" arrows="1" fold="1" page="1" pageScale="1" pageWidth="827" pageHeight="1169" math="0" shadow="0">
      <root>
        <mxCell id="0" />
        <mxCell id="1" parent="0" />
        <mxCell id="hTwjzOJedB3ZMtPHPvdc-1" style="edgeStyle=none;rounded=0;orthogonalLoop=1;jettySize=auto;html=1;entryX=0.5;entryY=0;entryDx=0;entryDy=0;" edge="1" parent="1" source="hTwjzOJedB3ZMtPHPvdc-3" target="hTwjzOJedB3ZMtPHPvdc-9">
          <mxGeometry relative="1" as="geometry" />
        </mxCell>
        <mxCell id="hTwjzOJedB3ZMtPHPvdc-2" style="edgeStyle=none;rounded=0;orthogonalLoop=1;jettySize=auto;html=1;exitX=0;exitY=0.5;exitDx=0;exitDy=0;entryX=0.5;entryY=0;entryDx=0;entryDy=0;" edge="1" parent="1" source="hTwjzOJedB3ZMtPHPvdc-3" target="hTwjzOJedB3ZMtPHPvdc-6">
          <mxGeometry relative="1" as="geometry" />
        </mxCell>
        <mxCell id="hTwjzOJedB3ZMtPHPvdc-3" value="82" style="ellipse;whiteSpace=wrap;html=1;aspect=fixed;" vertex="1" parent="1">
          <mxGeometry x="70" y="1920" width="40" height="40" as="geometry" />
        </mxCell>
        <mxCell id="hTwjzOJedB3ZMtPHPvdc-4" style="edgeStyle=none;rounded=0;orthogonalLoop=1;jettySize=auto;html=1;entryX=0.5;entryY=0;entryDx=0;entryDy=0;" edge="1" parent="1" source="hTwjzOJedB3ZMtPHPvdc-6" target="hTwjzOJedB3ZMtPHPvdc-10">
          <mxGeometry relative="1" as="geometry" />
        </mxCell>
        <mxCell id="hTwjzOJedB3ZMtPHPvdc-5" style="edgeStyle=none;rounded=0;orthogonalLoop=1;jettySize=auto;html=1;entryX=0.5;entryY=0;entryDx=0;entryDy=0;" edge="1" parent="1" source="hTwjzOJedB3ZMtPHPvdc-6" target="hTwjzOJedB3ZMtPHPvdc-11">
          <mxGeometry relative="1" as="geometry" />
        </mxCell>
        <mxCell id="hTwjzOJedB3ZMtPHPvdc-6" value="66" style="ellipse;whiteSpace=wrap;html=1;aspect=fixed;" vertex="1" parent="1">
          <mxGeometry x="-80" y="2000" width="40" height="40" as="geometry" />
        </mxCell>
        <mxCell id="hTwjzOJedB3ZMtPHPvdc-7" style="rounded=0;orthogonalLoop=1;jettySize=auto;html=1;entryX=0.5;entryY=0;entryDx=0;entryDy=0;startArrow=none;startFill=0;endArrow=classicThin;endFill=1;" edge="1" parent="1" source="hTwjzOJedB3ZMtPHPvdc-9" target="hTwjzOJedB3ZMtPHPvdc-12">
          <mxGeometry relative="1" as="geometry" />
        </mxCell>
        <mxCell id="hTwjzOJedB3ZMtPHPvdc-8" style="edgeStyle=none;rounded=0;orthogonalLoop=1;jettySize=auto;html=1;startArrow=none;startFill=0;endArrow=classicThin;endFill=1;entryX=0.5;entryY=0;entryDx=0;entryDy=0;" edge="1" parent="1" source="hTwjzOJedB3ZMtPHPvdc-9" target="hTwjzOJedB3ZMtPHPvdc-13">
          <mxGeometry relative="1" as="geometry">
            <mxPoint x="290" y="2080" as="targetPoint" />
          </mxGeometry>
        </mxCell>
        <mxCell id="hTwjzOJedB3ZMtPHPvdc-9" value="81" style="ellipse;whiteSpace=wrap;html=1;aspect=fixed;" vertex="1" parent="1">
          <mxGeometry x="190" y="2000" width="40" height="40" as="geometry" />
        </mxCell>
        <mxCell id="hTwjzOJedB3ZMtPHPvdc-10" value="40" style="ellipse;whiteSpace=wrap;html=1;aspect=fixed;" vertex="1" parent="1">
          <mxGeometry x="-160" y="2080" width="40" height="40" as="geometry" />
        </mxCell>
        <mxCell id="hTwjzOJedB3ZMtPHPvdc-11" value="60" style="ellipse;whiteSpace=wrap;html=1;aspect=fixed;" vertex="1" parent="1">
          <mxGeometry y="2080" width="40" height="40" as="geometry" />
        </mxCell>
        <mxCell id="hTwjzOJedB3ZMtPHPvdc-12" value="75" style="ellipse;whiteSpace=wrap;html=1;aspect=fixed;" vertex="1" parent="1">
          <mxGeometry x="120" y="2080" width="40" height="40" as="geometry" />
        </mxCell>
        <mxCell id="hTwjzOJedB3ZMtPHPvdc-13" value="92" style="ellipse;whiteSpace=wrap;html=1;aspect=fixed;fillColor=#FF0000;" vertex="1" parent="1">
          <mxGeometry x="260" y="2080" width="40" height="40" as="geometry" />
        </mxCell>
        <mxCell id="hTwjzOJedB3ZMtPHPvdc-14" style="edgeStyle=none;rounded=0;orthogonalLoop=1;jettySize=auto;html=1;entryX=0.5;entryY=0;entryDx=0;entryDy=0;" edge="1" parent="1" source="hTwjzOJedB3ZMtPHPvdc-16" target="hTwjzOJedB3ZMtPHPvdc-21">
          <mxGeometry relative="1" as="geometry" />
        </mxCell>
        <mxCell id="hTwjzOJedB3ZMtPHPvdc-15" style="edgeStyle=none;rounded=0;orthogonalLoop=1;jettySize=auto;html=1;exitX=0;exitY=0.5;exitDx=0;exitDy=0;entryX=0.5;entryY=0;entryDx=0;entryDy=0;" edge="1" parent="1" source="hTwjzOJedB3ZMtPHPvdc-16" target="hTwjzOJedB3ZMtPHPvdc-19">
          <mxGeometry relative="1" as="geometry" />
        </mxCell>
        <mxCell id="hTwjzOJedB3ZMtPHPvdc-16" value="82" style="ellipse;whiteSpace=wrap;html=1;aspect=fixed;" vertex="1" parent="1">
          <mxGeometry x="-440" y="1920" width="40" height="40" as="geometry" />
        </mxCell>
        <mxCell id="hTwjzOJedB3ZMtPHPvdc-17" style="edgeStyle=none;rounded=0;orthogonalLoop=1;jettySize=auto;html=1;entryX=0.5;entryY=0;entryDx=0;entryDy=0;" edge="1" parent="1" source="hTwjzOJedB3ZMtPHPvdc-19" target="hTwjzOJedB3ZMtPHPvdc-22">
          <mxGeometry relative="1" as="geometry" />
        </mxCell>
        <mxCell id="hTwjzOJedB3ZMtPHPvdc-18" style="edgeStyle=none;rounded=0;orthogonalLoop=1;jettySize=auto;html=1;entryX=0.5;entryY=0;entryDx=0;entryDy=0;" edge="1" parent="1" source="hTwjzOJedB3ZMtPHPvdc-19" target="hTwjzOJedB3ZMtPHPvdc-23">
          <mxGeometry relative="1" as="geometry" />
        </mxCell>
        <mxCell id="hTwjzOJedB3ZMtPHPvdc-19" value="66" style="ellipse;whiteSpace=wrap;html=1;aspect=fixed;" vertex="1" parent="1">
          <mxGeometry x="-590" y="2000" width="40" height="40" as="geometry" />
        </mxCell>
        <mxCell id="hTwjzOJedB3ZMtPHPvdc-20" style="edgeStyle=none;rounded=0;orthogonalLoop=1;jettySize=auto;html=1;entryX=0.5;entryY=0;entryDx=0;entryDy=0;startArrow=none;startFill=0;endArrow=classicThin;endFill=1;" edge="1" parent="1" source="hTwjzOJedB3ZMtPHPvdc-21" target="hTwjzOJedB3ZMtPHPvdc-24">
          <mxGeometry relative="1" as="geometry" />
        </mxCell>
        <mxCell id="hTwjzOJedB3ZMtPHPvdc-21" value="81" style="ellipse;whiteSpace=wrap;html=1;aspect=fixed;" vertex="1" parent="1">
          <mxGeometry x="-320" y="2000" width="40" height="40" as="geometry" />
        </mxCell>
        <mxCell id="hTwjzOJedB3ZMtPHPvdc-22" value="40" style="ellipse;whiteSpace=wrap;html=1;aspect=fixed;" vertex="1" parent="1">
          <mxGeometry x="-670" y="2080" width="40" height="40" as="geometry" />
        </mxCell>
        <mxCell id="hTwjzOJedB3ZMtPHPvdc-23" value="60" style="ellipse;whiteSpace=wrap;html=1;aspect=fixed;" vertex="1" parent="1">
          <mxGeometry x="-510" y="2080" width="40" height="40" as="geometry" />
        </mxCell>
        <mxCell id="hTwjzOJedB3ZMtPHPvdc-24" value="92" style="ellipse;whiteSpace=wrap;html=1;aspect=fixed;fillColor=#FF0000;" vertex="1" parent="1">
          <mxGeometry x="-390" y="2080" width="40" height="40" as="geometry" />
        </mxCell>
        <mxCell id="hTwjzOJedB3ZMtPHPvdc-25" style="edgeStyle=none;rounded=0;orthogonalLoop=1;jettySize=auto;html=1;entryX=0.5;entryY=0;entryDx=0;entryDy=0;" edge="1" parent="1" source="hTwjzOJedB3ZMtPHPvdc-27" target="hTwjzOJedB3ZMtPHPvdc-33">
          <mxGeometry relative="1" as="geometry" />
        </mxCell>
        <mxCell id="hTwjzOJedB3ZMtPHPvdc-26" style="edgeStyle=none;rounded=0;orthogonalLoop=1;jettySize=auto;html=1;exitX=0;exitY=0.5;exitDx=0;exitDy=0;entryX=0.5;entryY=0;entryDx=0;entryDy=0;" edge="1" parent="1" source="hTwjzOJedB3ZMtPHPvdc-27" target="hTwjzOJedB3ZMtPHPvdc-30">
          <mxGeometry relative="1" as="geometry" />
        </mxCell>
        <mxCell id="hTwjzOJedB3ZMtPHPvdc-27" value="81" style="ellipse;whiteSpace=wrap;html=1;aspect=fixed;" vertex="1" parent="1">
          <mxGeometry x="60" y="2160" width="40" height="40" as="geometry" />
        </mxCell>
        <mxCell id="hTwjzOJedB3ZMtPHPvdc-28" style="edgeStyle=none;rounded=0;orthogonalLoop=1;jettySize=auto;html=1;entryX=0.5;entryY=0;entryDx=0;entryDy=0;" edge="1" parent="1" source="hTwjzOJedB3ZMtPHPvdc-30" target="hTwjzOJedB3ZMtPHPvdc-34">
          <mxGeometry relative="1" as="geometry" />
        </mxCell>
        <mxCell id="hTwjzOJedB3ZMtPHPvdc-29" style="edgeStyle=none;rounded=0;orthogonalLoop=1;jettySize=auto;html=1;entryX=0.5;entryY=0;entryDx=0;entryDy=0;" edge="1" parent="1" source="hTwjzOJedB3ZMtPHPvdc-30" target="hTwjzOJedB3ZMtPHPvdc-35">
          <mxGeometry relative="1" as="geometry" />
        </mxCell>
        <mxCell id="hTwjzOJedB3ZMtPHPvdc-30" value="66" style="ellipse;whiteSpace=wrap;html=1;aspect=fixed;" vertex="1" parent="1">
          <mxGeometry x="-90" y="2240" width="40" height="40" as="geometry" />
        </mxCell>
        <mxCell id="hTwjzOJedB3ZMtPHPvdc-31" style="edgeStyle=none;rounded=0;orthogonalLoop=1;jettySize=auto;html=1;entryX=0.5;entryY=0;entryDx=0;entryDy=0;startArrow=none;startFill=0;endArrow=classicThin;endFill=1;" edge="1" parent="1" source="hTwjzOJedB3ZMtPHPvdc-33" target="hTwjzOJedB3ZMtPHPvdc-37">
          <mxGeometry relative="1" as="geometry" />
        </mxCell>
        <mxCell id="hTwjzOJedB3ZMtPHPvdc-32" style="edgeStyle=none;rounded=0;orthogonalLoop=1;jettySize=auto;html=1;entryX=0.5;entryY=0;entryDx=0;entryDy=0;startArrow=none;startFill=0;endArrow=classicThin;endFill=1;" edge="1" parent="1" source="hTwjzOJedB3ZMtPHPvdc-33" target="hTwjzOJedB3ZMtPHPvdc-38">
          <mxGeometry relative="1" as="geometry" />
        </mxCell>
        <mxCell id="hTwjzOJedB3ZMtPHPvdc-33" value="75" style="ellipse;whiteSpace=wrap;html=1;aspect=fixed;fillColor=#FF0000;" vertex="1" parent="1">
          <mxGeometry x="180" y="2240" width="40" height="40" as="geometry" />
        </mxCell>
        <mxCell id="hTwjzOJedB3ZMtPHPvdc-34" value="40" style="ellipse;whiteSpace=wrap;html=1;aspect=fixed;" vertex="1" parent="1">
          <mxGeometry x="-170" y="2320" width="40" height="40" as="geometry" />
        </mxCell>
        <mxCell id="hTwjzOJedB3ZMtPHPvdc-35" value="60" style="ellipse;whiteSpace=wrap;html=1;aspect=fixed;" vertex="1" parent="1">
          <mxGeometry x="-10" y="2320" width="40" height="40" as="geometry" />
        </mxCell>
        <mxCell id="hTwjzOJedB3ZMtPHPvdc-36" style="edgeStyle=orthogonalEdgeStyle;rounded=0;orthogonalLoop=1;jettySize=auto;html=1;entryX=0;entryY=0.25;entryDx=0;entryDy=0;entryPerimeter=0;dashed=1;startArrow=none;startFill=0;endArrow=classicThin;endFill=1;opacity=30;curved=1;" edge="1" parent="1" source="hTwjzOJedB3ZMtPHPvdc-37" target="hTwjzOJedB3ZMtPHPvdc-33">
          <mxGeometry relative="1" as="geometry">
            <Array as="points">
              <mxPoint x="110" y="2250" />
            </Array>
          </mxGeometry>
        </mxCell>
        <mxCell id="hTwjzOJedB3ZMtPHPvdc-37" value="75" style="ellipse;whiteSpace=wrap;html=1;aspect=fixed;fillColor=#FFFF00;" vertex="1" parent="1">
          <mxGeometry x="110" y="2320" width="40" height="40" as="geometry" />
        </mxCell>
        <mxCell id="hTwjzOJedB3ZMtPHPvdc-38" value="92" style="ellipse;whiteSpace=wrap;html=1;aspect=fixed;" vertex="1" parent="1">
          <mxGeometry x="250" y="2320" width="40" height="40" as="geometry" />
        </mxCell>
        <mxCell id="hTwjzOJedB3ZMtPHPvdc-39" style="edgeStyle=none;rounded=0;orthogonalLoop=1;jettySize=auto;html=1;entryX=0.5;entryY=0;entryDx=0;entryDy=0;" edge="1" parent="1" source="hTwjzOJedB3ZMtPHPvdc-41" target="hTwjzOJedB3ZMtPHPvdc-46">
          <mxGeometry relative="1" as="geometry" />
        </mxCell>
        <mxCell id="hTwjzOJedB3ZMtPHPvdc-40" style="edgeStyle=none;rounded=0;orthogonalLoop=1;jettySize=auto;html=1;exitX=0;exitY=0.5;exitDx=0;exitDy=0;entryX=0.5;entryY=0;entryDx=0;entryDy=0;" edge="1" parent="1" source="hTwjzOJedB3ZMtPHPvdc-41" target="hTwjzOJedB3ZMtPHPvdc-44">
          <mxGeometry relative="1" as="geometry" />
        </mxCell>
        <mxCell id="hTwjzOJedB3ZMtPHPvdc-41" value="81" style="ellipse;whiteSpace=wrap;html=1;aspect=fixed;" vertex="1" parent="1">
          <mxGeometry x="-440" y="2160" width="40" height="40" as="geometry" />
        </mxCell>
        <mxCell id="hTwjzOJedB3ZMtPHPvdc-42" style="edgeStyle=none;rounded=0;orthogonalLoop=1;jettySize=auto;html=1;entryX=0.5;entryY=0;entryDx=0;entryDy=0;" edge="1" parent="1" source="hTwjzOJedB3ZMtPHPvdc-44" target="hTwjzOJedB3ZMtPHPvdc-47">
          <mxGeometry relative="1" as="geometry" />
        </mxCell>
        <mxCell id="hTwjzOJedB3ZMtPHPvdc-43" style="edgeStyle=none;rounded=0;orthogonalLoop=1;jettySize=auto;html=1;entryX=0.5;entryY=0;entryDx=0;entryDy=0;" edge="1" parent="1" source="hTwjzOJedB3ZMtPHPvdc-44" target="hTwjzOJedB3ZMtPHPvdc-49">
          <mxGeometry relative="1" as="geometry" />
        </mxCell>
        <mxCell id="hTwjzOJedB3ZMtPHPvdc-44" value="66" style="ellipse;whiteSpace=wrap;html=1;aspect=fixed;" vertex="1" parent="1">
          <mxGeometry x="-590" y="2240" width="40" height="40" as="geometry" />
        </mxCell>
        <mxCell id="hTwjzOJedB3ZMtPHPvdc-45" style="edgeStyle=none;rounded=0;orthogonalLoop=1;jettySize=auto;html=1;entryX=0.5;entryY=0;entryDx=0;entryDy=0;startArrow=none;startFill=0;endArrow=classicThin;endFill=1;" edge="1" parent="1" source="hTwjzOJedB3ZMtPHPvdc-46" target="hTwjzOJedB3ZMtPHPvdc-50">
          <mxGeometry relative="1" as="geometry" />
        </mxCell>
        <mxCell id="hTwjzOJedB3ZMtPHPvdc-46" value="60" style="ellipse;whiteSpace=wrap;html=1;aspect=fixed;fillColor=#FF0000;" vertex="1" parent="1">
          <mxGeometry x="-320" y="2240" width="40" height="40" as="geometry" />
        </mxCell>
        <mxCell id="hTwjzOJedB3ZMtPHPvdc-47" value="40" style="ellipse;whiteSpace=wrap;html=1;aspect=fixed;" vertex="1" parent="1">
          <mxGeometry x="-670" y="2320" width="40" height="40" as="geometry" />
        </mxCell>
        <mxCell id="hTwjzOJedB3ZMtPHPvdc-48" style="edgeStyle=none;rounded=0;orthogonalLoop=1;jettySize=auto;html=1;entryX=0;entryY=0.5;entryDx=0;entryDy=0;startArrow=none;startFill=0;endArrow=classicThin;endFill=1;dashed=1;opacity=30;" edge="1" parent="1" source="hTwjzOJedB3ZMtPHPvdc-49" target="hTwjzOJedB3ZMtPHPvdc-46">
          <mxGeometry relative="1" as="geometry" />
        </mxCell>
        <mxCell id="hTwjzOJedB3ZMtPHPvdc-49" value="60" style="ellipse;whiteSpace=wrap;html=1;aspect=fixed;fillColor=#FFFF00;" vertex="1" parent="1">
          <mxGeometry x="-510" y="2320" width="40" height="40" as="geometry" />
        </mxCell>
        <mxCell id="hTwjzOJedB3ZMtPHPvdc-50" value="92" style="ellipse;whiteSpace=wrap;html=1;aspect=fixed;" vertex="1" parent="1">
          <mxGeometry x="-390" y="2320" width="40" height="40" as="geometry" />
        </mxCell>
        <mxCell id="hTwjzOJedB3ZMtPHPvdc-51" style="edgeStyle=none;rounded=0;orthogonalLoop=1;jettySize=auto;html=1;entryX=0.5;entryY=0;entryDx=0;entryDy=0;" edge="1" parent="1" source="hTwjzOJedB3ZMtPHPvdc-53" target="hTwjzOJedB3ZMtPHPvdc-58">
          <mxGeometry relative="1" as="geometry" />
        </mxCell>
        <mxCell id="hTwjzOJedB3ZMtPHPvdc-52" style="edgeStyle=none;rounded=0;orthogonalLoop=1;jettySize=auto;html=1;exitX=0;exitY=0.5;exitDx=0;exitDy=0;entryX=0.5;entryY=0;entryDx=0;entryDy=0;" edge="1" parent="1" source="hTwjzOJedB3ZMtPHPvdc-53" target="hTwjzOJedB3ZMtPHPvdc-56">
          <mxGeometry relative="1" as="geometry" />
        </mxCell>
        <mxCell id="hTwjzOJedB3ZMtPHPvdc-53" value="81" style="ellipse;whiteSpace=wrap;html=1;aspect=fixed;" vertex="1" parent="1">
          <mxGeometry x="-440" y="2420" width="40" height="40" as="geometry" />
        </mxCell>
        <mxCell id="hTwjzOJedB3ZMtPHPvdc-54" style="edgeStyle=none;rounded=0;orthogonalLoop=1;jettySize=auto;html=1;entryX=0.5;entryY=0;entryDx=0;entryDy=0;" edge="1" parent="1" source="hTwjzOJedB3ZMtPHPvdc-56" target="hTwjzOJedB3ZMtPHPvdc-59">
          <mxGeometry relative="1" as="geometry" />
        </mxCell>
        <mxCell id="hTwjzOJedB3ZMtPHPvdc-55" style="edgeStyle=none;rounded=0;orthogonalLoop=1;jettySize=auto;html=1;entryX=0.5;entryY=0;entryDx=0;entryDy=0;" edge="1" parent="1" source="hTwjzOJedB3ZMtPHPvdc-56" target="hTwjzOJedB3ZMtPHPvdc-61">
          <mxGeometry relative="1" as="geometry" />
        </mxCell>
        <mxCell id="hTwjzOJedB3ZMtPHPvdc-56" value="66" style="ellipse;whiteSpace=wrap;html=1;aspect=fixed;" vertex="1" parent="1">
          <mxGeometry x="-590" y="2500" width="40" height="40" as="geometry" />
        </mxCell>
        <mxCell id="hTwjzOJedB3ZMtPHPvdc-57" style="edgeStyle=none;rounded=0;orthogonalLoop=1;jettySize=auto;html=1;entryX=0.5;entryY=0;entryDx=0;entryDy=0;startArrow=none;startFill=0;endArrow=classicThin;endFill=1;" edge="1" parent="1" source="hTwjzOJedB3ZMtPHPvdc-58" target="hTwjzOJedB3ZMtPHPvdc-62">
          <mxGeometry relative="1" as="geometry" />
        </mxCell>
        <mxCell id="hTwjzOJedB3ZMtPHPvdc-58" value="60" style="ellipse;whiteSpace=wrap;html=1;aspect=fixed;" vertex="1" parent="1">
          <mxGeometry x="-320" y="2500" width="40" height="40" as="geometry" />
        </mxCell>
        <mxCell id="hTwjzOJedB3ZMtPHPvdc-59" value="40" style="ellipse;whiteSpace=wrap;html=1;aspect=fixed;" vertex="1" parent="1">
          <mxGeometry x="-670" y="2580" width="40" height="40" as="geometry" />
        </mxCell>
        <mxCell id="hTwjzOJedB3ZMtPHPvdc-60" style="edgeStyle=orthogonalEdgeStyle;curved=1;rounded=0;orthogonalLoop=1;jettySize=auto;html=1;dashed=1;startArrow=none;startFill=0;endArrow=classicThin;endFill=1;opacity=30;entryX=0.125;entryY=0.5;entryDx=0;entryDy=0;entryPerimeter=0;exitX=0.875;exitY=0.5;exitDx=0;exitDy=0;exitPerimeter=0;" edge="1" parent="1" source="hTwjzOJedB3ZMtPHPvdc-61" target="hTwjzOJedB3ZMtPHPvdc-61">
          <mxGeometry relative="1" as="geometry">
            <mxPoint x="-515" y="2600" as="targetPoint" />
            <mxPoint x="-465" y="2600" as="sourcePoint" />
            <Array as="points">
              <mxPoint x="-465" y="2600" />
              <mxPoint x="-465" y="2660" />
              <mxPoint x="-515" y="2660" />
              <mxPoint x="-515" y="2600" />
            </Array>
          </mxGeometry>
        </mxCell>
        <mxCell id="hTwjzOJedB3ZMtPHPvdc-61" value="50" style="ellipse;whiteSpace=wrap;html=1;aspect=fixed;fillColor=#FFFF00;" vertex="1" parent="1">
          <mxGeometry x="-510" y="2580" width="40" height="40" as="geometry" />
        </mxCell>
        <mxCell id="hTwjzOJedB3ZMtPHPvdc-62" value="92" style="ellipse;whiteSpace=wrap;html=1;aspect=fixed;" vertex="1" parent="1">
          <mxGeometry x="-390" y="2580" width="40" height="40" as="geometry" />
        </mxCell>
        <mxCell id="hTwjzOJedB3ZMtPHPvdc-63" style="edgeStyle=none;rounded=0;orthogonalLoop=1;jettySize=auto;html=1;entryX=0.5;entryY=0;entryDx=0;entryDy=0;" edge="1" parent="1" source="hTwjzOJedB3ZMtPHPvdc-65" target="hTwjzOJedB3ZMtPHPvdc-71">
          <mxGeometry relative="1" as="geometry" />
        </mxCell>
        <mxCell id="hTwjzOJedB3ZMtPHPvdc-64" style="edgeStyle=none;rounded=0;orthogonalLoop=1;jettySize=auto;html=1;exitX=0;exitY=0.5;exitDx=0;exitDy=0;entryX=0.5;entryY=0;entryDx=0;entryDy=0;" edge="1" parent="1" source="hTwjzOJedB3ZMtPHPvdc-65" target="hTwjzOJedB3ZMtPHPvdc-68">
          <mxGeometry relative="1" as="geometry" />
        </mxCell>
        <mxCell id="hTwjzOJedB3ZMtPHPvdc-65" value="81" style="ellipse;whiteSpace=wrap;html=1;aspect=fixed;" vertex="1" parent="1">
          <mxGeometry x="80" y="2420" width="40" height="40" as="geometry" />
        </mxCell>
        <mxCell id="hTwjzOJedB3ZMtPHPvdc-66" style="edgeStyle=none;rounded=0;orthogonalLoop=1;jettySize=auto;html=1;entryX=0.5;entryY=0;entryDx=0;entryDy=0;" edge="1" parent="1" source="hTwjzOJedB3ZMtPHPvdc-68" target="hTwjzOJedB3ZMtPHPvdc-72">
          <mxGeometry relative="1" as="geometry" />
        </mxCell>
        <mxCell id="hTwjzOJedB3ZMtPHPvdc-67" style="edgeStyle=none;rounded=0;orthogonalLoop=1;jettySize=auto;html=1;entryX=0.5;entryY=0;entryDx=0;entryDy=0;" edge="1" parent="1" source="hTwjzOJedB3ZMtPHPvdc-68" target="hTwjzOJedB3ZMtPHPvdc-73">
          <mxGeometry relative="1" as="geometry" />
        </mxCell>
        <mxCell id="hTwjzOJedB3ZMtPHPvdc-68" value="66" style="ellipse;whiteSpace=wrap;html=1;aspect=fixed;" vertex="1" parent="1">
          <mxGeometry x="-70" y="2500" width="40" height="40" as="geometry" />
        </mxCell>
        <mxCell id="hTwjzOJedB3ZMtPHPvdc-69" style="edgeStyle=none;rounded=0;orthogonalLoop=1;jettySize=auto;html=1;entryX=0.5;entryY=0;entryDx=0;entryDy=0;startArrow=none;startFill=0;endArrow=classicThin;endFill=1;" edge="1" parent="1" source="hTwjzOJedB3ZMtPHPvdc-71" target="hTwjzOJedB3ZMtPHPvdc-75">
          <mxGeometry relative="1" as="geometry" />
        </mxCell>
        <mxCell id="hTwjzOJedB3ZMtPHPvdc-70" style="edgeStyle=none;rounded=0;orthogonalLoop=1;jettySize=auto;html=1;entryX=0.5;entryY=0;entryDx=0;entryDy=0;startArrow=none;startFill=0;endArrow=classicThin;endFill=1;" edge="1" parent="1" source="hTwjzOJedB3ZMtPHPvdc-71" target="hTwjzOJedB3ZMtPHPvdc-76">
          <mxGeometry relative="1" as="geometry" />
        </mxCell>
        <mxCell id="hTwjzOJedB3ZMtPHPvdc-71" value="75" style="ellipse;whiteSpace=wrap;html=1;aspect=fixed;" vertex="1" parent="1">
          <mxGeometry x="200" y="2500" width="40" height="40" as="geometry" />
        </mxCell>
        <mxCell id="hTwjzOJedB3ZMtPHPvdc-72" value="40" style="ellipse;whiteSpace=wrap;html=1;aspect=fixed;" vertex="1" parent="1">
          <mxGeometry x="-150" y="2580" width="40" height="40" as="geometry" />
        </mxCell>
        <mxCell id="hTwjzOJedB3ZMtPHPvdc-73" value="60" style="ellipse;whiteSpace=wrap;html=1;aspect=fixed;" vertex="1" parent="1">
          <mxGeometry x="10" y="2580" width="40" height="40" as="geometry" />
        </mxCell>
        <mxCell id="hTwjzOJedB3ZMtPHPvdc-74" style="edgeStyle=orthogonalEdgeStyle;curved=1;rounded=0;orthogonalLoop=1;jettySize=auto;html=1;dashed=1;startArrow=none;startFill=0;endArrow=classicThin;endFill=1;opacity=30;entryX=0;entryY=0.5;entryDx=0;entryDy=0;exitX=1;exitY=0.5;exitDx=0;exitDy=0;" edge="1" parent="1" source="hTwjzOJedB3ZMtPHPvdc-75" target="hTwjzOJedB3ZMtPHPvdc-75">
          <mxGeometry relative="1" as="geometry">
            <mxPoint x="120" y="2600" as="targetPoint" />
            <mxPoint x="180" y="2600" as="sourcePoint" />
            <Array as="points">
              <mxPoint x="180" y="2600" />
              <mxPoint x="180" y="2670" />
              <mxPoint x="110" y="2670" />
              <mxPoint x="110" y="2600" />
            </Array>
          </mxGeometry>
        </mxCell>
        <mxCell id="hTwjzOJedB3ZMtPHPvdc-75" value="50" style="ellipse;whiteSpace=wrap;html=1;aspect=fixed;fillColor=#FFFF00;" vertex="1" parent="1">
          <mxGeometry x="130" y="2580" width="40" height="40" as="geometry" />
        </mxCell>
        <mxCell id="hTwjzOJedB3ZMtPHPvdc-76" value="92" style="ellipse;whiteSpace=wrap;html=1;aspect=fixed;" vertex="1" parent="1">
          <mxGeometry x="270" y="2580" width="40" height="40" as="geometry" />
        </mxCell>
      </root>
    </mxGraphModel>
  </diagram>
</mxfile>
